# xmcd
#
# Track frame offsets:
#	150
#	16590
#	31367
#	47587
#	66577
#	83112
#	100392
#	120162
#	136177
#	157362
#	182035
#	197240
#	213795
#	230310
#	246122
#	261312
#	276290
#	293722
#	309420
#	322807
#
# Disc length: 4520 seconds
#
# Revision: 8
# Processed by: cddbd v1.5.2PL0 Copyright (c) Steve Scherf et al.
# Submitted via: audiograbber 1.83.01
#
DISCID=1711a614
DTITLE=Various Artist - Just The Best Vol. 27 (1-2001) CD 1
DYEAR=2001
DGENRE=Pop
TTITLE0=Christian - Es ist geil ein Arschloch zu sein
TTITLE1=Baha Men - Who Let The Dogs Out
TTITLE2=DJ Tomekk feat. Krs One, Torch and MC Rene - Return Of Hip Hop
TTITLE3=Robbie Williams - Supreme
TTITLE4=Brooklyn Bounce - Bass, Beats and Melody
TTITLE5=Backstreet Boys - Shape Of My Heart
TTITLE6=Slut - It Was Easier
TTITLE7=LeAnn Rimes - Can't Fight The Moonlight
TTITLE8='N Sync - This I Promise You
TTITLE9=R. Kelly - I Wish
TTITLE10=DJ Red 5 vs. DJ's@Work - Rhythm and Drums 2001
TTITLE11=Melissa - Bulletproof
TTITLE12=Sasha - Owner Of My Heart
TTITLE13=Siesto - Everytime I Hear
TTITLE14=Craig David - Walking Away
TTITLE15=Eric Singleton vs. Shaggy - Sexy Girl
TTITLE16=Samir feat. Ju - Tut gut
TTITLE17=ATC - Thinking Of You
TTITLE18=Gigi D'Agostino - La Passion
TTITLE19=DJ Ötzi - Hey Baby
EXTD=
EXTT0=
EXTT1=
EXTT2=
EXTT3=
EXTT4=
EXTT5=
EXTT6=
EXTT7=
EXTT8=
EXTT9=
EXTT10=
EXTT11=
EXTT12=
EXTT13=
EXTT14=
EXTT15=
EXTT16=
EXTT17=
EXTT18=
EXTT19=
PLAYORDER=
